<svg xmlns="http://www.w3.org/2000/svg" width="69.357" height="21.719" viewBox="0 0 69.357 21.719"><defs><style>.a,.b{fill:#005faf;}.a{stroke:#005faf;stroke-width:0.5px;}</style></defs><g transform="translate(-0.103 -0.23)"><path class="a" d="M50.969,11.592c4.371-1.984,5.017-8.46-1.2-8.46h-7.2l-2.66,5.223H41.16l-3.182,12.48h8.348c6.09.052,8.83-7.125,4.644-9.242Zm-4.644,4.7H44.239l.782-2.82H47c2.348.47.887,2.924-.678,2.82Zm1.253-6.005H45.8l.521-2.454h1.983C50.224,8.3,48.569,10.391,47.578,10.286Z" transform="translate(-13.357 -1.024)"/><path class="a" d="M76.525,9.751l2.733-4.829-3.7-1.931-.483.6c-2-1.056-12.443.4-13.1,10.719.391,8.653,10.079,7.1,11.03,6.547l2.664-5.513c-2.61,1.721-7.953,2.547-8.179-2.622.469-4.261,5.5-5.852,9.031-2.966Zm13.64-6.669h-8.4L79.091,8.148h1.372L74.131,20.784h6.13l1.258-3.048h3.763l.094,3.048h5.642l-.853-17.7Zm-6.942,10.55,2.058-4.916.093,4.916Z" transform="translate(-21.821 -0.974)"/><path class="b" d="M19.7,28.85l.326-.1-.358-.5Zm-5.359-.084-.063.442c.162-.016.363.124.442-.19C14.712,28.774,14.527,28.76,14.34,28.766Zm2.6-.011c-.027-.12-.128-.209-.379-.126l.084.453C16.853,29.036,16.958,28.914,16.94,28.755Zm-5.875-.37-.1.4c.162.006.351.138.458-.1C11.43,28.538,11.436,28.389,11.065,28.385Zm5.654,1.034.074.464c.172,0,.33-.1.284-.316S16.858,29.392,16.719,29.419Z" transform="translate(-3.831 -9.885)"/><path class="b" d="M19.736,2.347A19.75,19.75,0,0,0,2.19,2.224C-.55,7.05-.636,13.8,2.19,19.783a19.437,19.437,0,0,0,17.587.124,20.019,20.019,0,0,0-.041-17.559ZM10.319,16.759l-.33,0a4.141,4.141,0,0,0-.768-2.27C7.073,11.8,2.684,13.826,3.812,9.246,4.4,6.9,11.088,5.524,10.319,16.759Zm-6.5-4.524c.469.955,3.406,1.111,4.426,1.842a2.955,2.955,0,0,1,1.385,2.685H9.249c-.751-2.3-2.858-.48-4.546-1.1a2.3,2.3,0,0,1-.883-3.427Zm5.352,7.511.158-1.255.285.021-.127,1.38A.593.593,0,0,1,8.34,19.84l.147-1.433.337.053-.147,1.2c.019.4.417.374.495.084Zm-1.512.342-.324-.078c.038-.268.355-.814-.273-.814l-.175.713-.357-.067.379-1.711c.929.1,1.01.359,1.028.637-.036.216-.094.366-.279.4.217.2,0,.61,0,.917ZM5.6,18.172a2.139,2.139,0,0,0-.294.862c-.027.35.309.276.392.236.067-.032.118-.314.118-.314l-.236-.078.078-.235.53.176-.255.883-.216-.059.019-.137c-.263.12-.746.03-.8-.274A2.237,2.237,0,0,1,5.327,17.9c.269-.338.924-.008.941.2a1.228,1.228,0,0,1-.065.432l-.246-.047s.015-.073.036-.189-.3-.245-.392-.118Zm4.814,1.436-.063.759-.263-.01.095-1.8c.657.014,1.034.1,1.022.57C11.165,19.758,10.651,19.615,10.414,19.608Zm.655-2.846h-.44c-.039-1.56.26-4.415-.559-6.516C9.45,8.654,7.879,7.938,7.531,6.652c-.552-2.036.386-4.239,3.538-4.408A3.328,3.328,0,0,1,14.175,6.6c-.8,1.965-1.6,1.683-2.6,3.641-.815,2.1-.5,4.847-.5,6.521Zm4.883,2.887-.306.106-.1-1.813.358-.095.885,1.5-.242.159-.3-.421-.337.126.032.443ZM12.39,16.762h-.352c.29-4.008,5.322-3.137,5.782-4.528.795,1.379.509,2.541-.321,3.137-2.064,1.481-4.043-1.1-5.109,1.391Zm1.867,2.024.158.832c.1.192.165.157.316.137.175-.127.139-.25.106-.411l.306-.042c.079.6-.207.665-.421.706-.46.034-.55-.056-.673-.653-.073-.511-.2-1.051.231-1.149.7-.107.663.21.726.432l-.306.052c-.049-.191-.118-.267-.274-.252a.282.282,0,0,0-.168.347Zm-.642.864c.015.262-.074.437-.242.5l-.716.148-.285-1.739c.148-.024.867-.288,1.042.19a.474.474,0,0,1-.1.527.473.473,0,0,1,.306.379Zm-1.838-8.725c1.6-4.5,5.245-3.7,6.055-1.679,1.109,4.057-2.463,2.944-4.75,4.608a3.586,3.586,0,0,0-1.326,2.925h-.392c-.024-2.636-.067-4.5.413-5.853Z" transform="translate(0 0)"/></g></svg>