<svg xmlns="http://www.w3.org/2000/svg" width="74.361" height="21.674" viewBox="0 0 74.361 21.674"><defs><style>.a{fill:#f15a23;}.a,.b{fill-rule:evenodd;}.b{fill:#005e6a;}</style></defs><g transform="translate(-0.428 -0.255)"><path class="a" d="M.428,7.794,6.7,15.685.428,20.868ZM2.952,20.868l4.721-3.937,3.262,3.937ZM.428,3.572,2.065,5.637,8.8,14.024l2.181-1.732a26.99,26.99,0,0,1-3.026-4.5C5.573,3.157,7.257.27,7.257.27H.428ZM9.756,15.319l2.221-1.829s2.122,2.784,4.581,3.442c3.224.861,4.651-1.246,4.651-1.246v5.183H14.129l1.6-1.376s-.833.553-2.87-.853A20.874,20.874,0,0,1,9.756,15.319ZM9.959.255s-.708.962-.2,3.317a14.125,14.125,0,0,0,2.678,5.122,7.236,7.236,0,0,1,1.7-4.2,6.169,6.169,0,0,1,7.081-1.339V.27Z" transform="translate(0)"/><path class="a" d="M28.314,9.111S26.215,7.32,24.39,7.32a3.6,3.6,0,0,0-3.608,3.467,5.687,5.687,0,0,0,2.047,4.325c1.474,1.47,3.268,3.056,5.484,1.78V9.113Z" transform="translate(-7.104 -2.466)"/><path class="b" d="M59.043.586H64s4.387,6.624,6.543,9.361q2.273,2.9,4.477,5.854V2.07c0-.592-1.562-1.484-1.562-1.484h5.712s-1.874.768-1.874,1.484V22.044a15.9,15.9,0,0,1-3.837-3.356C71.163,16.033,63.013,5.317,63.013,5.317V19.2c0,.711,1.562,1.786,1.562,1.786H59.042S60.559,19.9,60.559,19.2V2.07c0-.63-1.517-1.484-1.517-1.484Zm23.321,0H88.72s-1.707.807-1.707,1.484V19.2c0,.74,1.707,1.786,1.707,1.786H82.364s1.588-1.07,1.588-1.786V2.07C83.952,1.419,82.364.586,82.364.586Zm-42.023,0s1.648.82,1.648,1.484V19.2c0,.728-1.648,1.786-1.648,1.786h9.417c.588,0,7.18-1.074,7.18-6.142S51.818,9.3,51.818,9.3a4.462,4.462,0,0,0,3.119-4.332c0-3.737-4.591-4.383-5.18-4.383H40.341Zm5,8.379V2.588h3.826a3.027,3.027,0,0,1,2.649,3.227,3.351,3.351,0,0,1-2.649,3.149Zm0,1.673h4.414c.588,0,4.061.9,4.061,3.9,0,3.062-3.473,4.148-4.061,4.148H45.344V10.637Z" transform="translate(-13.931 -0.116)"/></g></svg>