<svg xmlns="http://www.w3.org/2000/svg" width="92.191" height="21.674" viewBox="0 0 92.191 21.674"><defs><style>.a,.b{fill:#00529c;}.b{fill-rule:evenodd;}</style></defs><path class="a" d="M38.692,8.438H43.66c2.012,0,3.512.88,3.512,2.735a2.445,2.445,0,0,1-1.9,2.519v.031c1.44.294,2.182,1.067,2.182,2.38,0,2.581-2.276,3.122-4.21,3.122h-4.55ZM41.571,12.7h.8c.944,0,1.92-.232,1.92-1.144,0-.988-.93-1.081-1.89-1.081h-.835Zm0,4.482h.851c1.053,0,2.151-.155,2.151-1.253,0-1.174-1.13-1.282-2.121-1.282h-.881v2.535Zm9.659-8.748h3.528l4.163,10.787H55.764l-.805-2.3H50.9l-.851,2.3H47.128l4.1-10.787Zm1.765,2.225h-.032L51.57,14.883h2.709Z" transform="translate(-13.748 -2.998)"/><path class="b" d="M70.691,8.438h3.668l3.653,7.325h.03L78,8.437h2.631V19.225H77.051l-3.775-7.372h-.03l.092,7.372H70.691Zm10.913,0h2.879v4.4h.031l3.249-4.4h3.466L87.237,13.46l4.3,5.765H87.871l-3.358-4.9h-.031v4.9H81.6Z" transform="translate(-25.117 -2.998)"/><path class="a" d="M108.566,8.438h4.968c2.011,0,3.514.88,3.514,2.735a2.445,2.445,0,0,1-1.9,2.519v.031c1.44.294,2.181,1.067,2.181,2.38,0,2.581-2.274,3.122-4.209,3.122h-4.55Zm2.878,4.266h.805c.944,0,1.919-.232,1.919-1.144,0-.988-.927-1.081-1.888-1.081h-.836Zm0,4.482h.852c1.052,0,2.151-.155,2.151-1.253,0-1.174-1.129-1.282-2.12-1.282h-.883v2.535Zm6.52-8.748H123.1c1.919,0,3.481.866,3.481,2.721a2.52,2.52,0,0,1-2.073,2.719v.032c.927.248.99,1.066,1.532,2.38l1.051,2.937h-3l-.619-1.946c-.588-1.855-.961-2.32-2.028-2.32h-.6v4.266h-2.878V8.438Zm2.878,4.481h.758c.93,0,2.106-.031,2.106-1.252,0-1-1.006-1.189-2.106-1.189h-.758v2.441Z" transform="translate(-38.575 -2.998)"/><path class="b" d="M138.536,8.437h2.878V19.225h-2.878Z" transform="translate(-49.223 -2.998)"/><path class="a" d="M18.376,0H3.312A3.351,3.351,0,0,0,0,3.388v14.9a3.352,3.352,0,0,0,3.26,3.388H18.368a3.351,3.351,0,0,0,3.312-3.388l.006-14.9A3.35,3.35,0,0,0,18.376,0ZM5.1,19.938l-.822.009a1.813,1.813,0,0,1-1.8-1.824l-.005-.143V4.221l.006-.741a1.773,1.773,0,0,1,1.75-1.759H5.9A2.826,2.826,0,0,1,8.642,4.586a2.83,2.83,0,0,1-.788,1.97L3.591,10.875l4,4.063a2.847,2.847,0,0,1,.825,1.99A3.17,3.17,0,0,1,5.1,19.938Zm12.283-.014-7.449,0a9.664,9.664,0,0,0,.861-3.009,5.287,5.287,0,0,0-1.2-3.486L7.044,10.832l2.6-2.684a4.828,4.828,0,0,0,1.289-3.485,5.192,5.192,0,0,0-.841-2.942h1.8A2.826,2.826,0,0,1,14.64,4.586a2.83,2.83,0,0,1-.788,1.97L9.67,10.831l8.685,8.844a1.837,1.837,0,0,1-.97.249ZM19.2,17.163l-6.224-6.335,2.964-3.009a5.112,5.112,0,0,0,.986-3.156,5.248,5.248,0,0,0-.85-2.975l1.326.04a1.813,1.813,0,0,1,1.8,1.824l0,13.611Z"/></svg>