<svg xmlns="http://www.w3.org/2000/svg" xmlns:xlink="http://www.w3.org/1999/xlink" width="86.513" height="25.282" viewBox="0 0 86.513 25.282"><defs><style>.a,.b{fill:#003d79;}.a,.c{fill-rule:evenodd;}.c{fill:url(#a);}</style><linearGradient id="a" x1="-0.008" y1="0.502" x2="1.06" y2="0.398" gradientUnits="objectBoundingBox"><stop offset="0" stop-color="#fdb913"/><stop offset="0.225" stop-color="#ffcb05"/><stop offset="0.393" stop-color="#faa61a"/><stop offset="0.528" stop-color="#ffcb05"/><stop offset="0.646" stop-color="#faa61a"/><stop offset="0.764" stop-color="#ffcb05"/><stop offset="1" stop-color="#ffcb05"/></linearGradient></defs><g transform="translate(-0.227 -0.16)"><path class="a" d="M.315,21.359c0-1.219-.022-2.243-.088-3.157H2.568l.111,1.569h.065a3.729,3.729,0,0,1,3.312-1.809,3.1,3.1,0,0,1,2.981,1.96h.046A4.008,4.008,0,0,1,10.406,18.6a3.628,3.628,0,0,1,2.164-.634c1.789,0,3.6,1.2,3.6,4.6V28.8H13.52V22.947c0-1.762-.618-2.808-1.921-2.808a2.067,2.067,0,0,0-1.9,1.415,3.777,3.777,0,0,0-.132.89V28.8H6.918V22.663c0-1.477-.6-2.524-1.855-2.524a2.118,2.118,0,0,0-1.944,1.524,2.264,2.264,0,0,0-.154.869V28.8H.315V21.358Z" transform="translate(0 -3.995)"/><path class="b" d="M31.711,26.1a17.044,17.044,0,0,0,.152,2.546H29.436l-.175-1.175H29.2a3.958,3.958,0,0,1-3.147,1.414A3.153,3.153,0,0,1,22.7,25.728c0-2.679,2.381-4.026,6.319-4.005v-.174c0-.7-.285-1.851-2.165-1.851a5.664,5.664,0,0,0-2.865.783l-.524-1.742a7.687,7.687,0,0,1,3.847-.937c3.413,0,4.4,2.158,4.4,4.463Zm-2.625-2.633c-1.9-.045-3.717.368-3.717,1.979A1.41,1.41,0,0,0,26.9,26.97,2.18,2.18,0,0,0,29,25.51a1.926,1.926,0,0,0,.088-.586V23.466Z" transform="translate(-5.044 -3.959)"/><path class="a" d="M36.586,21.359c0-1.219-.023-2.243-.086-3.157h2.381l.132,1.591h.068a3.882,3.882,0,0,1,3.42-1.832c1.877,0,3.818,1.2,3.818,4.552V28.8H43.605V22.819c0-1.526-.575-2.68-2.053-2.68a2.272,2.272,0,0,0-2.118,1.568,2.7,2.7,0,0,0-.111.869V28.8H36.586V21.359Z" transform="translate(-8.14 -3.995)"/><path class="b" d="M61.77,12.86V25c0,1.111.047,2.314.092,3.048h-2.5l-.114-1.712H59.2a4,4,0,0,1-3.615,1.957c-2.639,0-4.73-2.2-4.73-5.538-.023-3.628,2.3-5.787,4.957-5.787a3.549,3.549,0,0,1,3.116,1.427h.047V12.86Zm-2.8,8.869a3.71,3.71,0,0,0-.07-.712,2.435,2.435,0,0,0-2.409-1.934c-1.8,0-2.8,1.557-2.8,3.582,0,1.979,1,3.426,2.777,3.426a2.454,2.454,0,0,0,2.409-1.937,2.915,2.915,0,0,0,.092-.8V21.729Z" transform="translate(-11.362 -2.85)"/><path class="a" d="M66.893,18.369h3.126V28.99H66.893Zm5.262,3.124c0-1.5-.022-2.56-.085-3.556H74.4l.085,2.1h.088a3.489,3.489,0,0,1,3.523-2.1v2.446a3.535,3.535,0,0,0-.781-.09,2.387,2.387,0,0,0-2.394,2.1,5.159,5.159,0,0,0-.086.863v5.7H72.155v-7.47Zm7.239-3.124H82.52V28.99H79.395Z" transform="translate(-14.961 -3.985)"/><path class="c" d="M30.239-13.4q-3.528,2.037-7.063,4.062a3.357,3.357,0,0,1-4.087-.932.622.622,0,0,1-.059-.09l-.067-.114-.343-.561c-.146-.233-.309-.471-.5-.716a7.255,7.255,0,0,0-.553-.631c-1.3-1.32-3.387-2.248-6.86-.591-2.1,1.2-6.985,4-6.985,4v0L.15-6.917,2-4.638A3.758,3.758,0,0,0,6.505-3.7s6.247-3.628,6.272-3.639c5.341-2.939,7.977-.13,9.141,1.742.04.058.074.122.11.178l0,0c.014.022.024.043.036.065l.133.217a2.921,2.921,0,0,0,2.529,1.394,3.111,3.111,0,0,0,1.57-.529l6.045-3.516a.076.076,0,0,1,.013-.005c5.407-2.976,8.087.017,9.232,1.889a4.669,4.669,0,0,0,.293.461,2.774,2.774,0,0,0,2.341,1.251,3.527,3.527,0,0,0,1.5-.481l7.248-4.194A30.632,30.632,0,0,0,50.7-11.738c-1.363-1.56-2.813-.853-3.966-.279-.484.24-3.983,2.229-3.983,2.229a3.4,3.4,0,0,1-4-.8,1.85,1.85,0,0,1-.152-.219l-.135-.237A10.739,10.739,0,0,0,37.7-12.2a6.389,6.389,0,0,0-.552-.632A4.693,4.693,0,0,0,33.7-14.312a8.023,8.023,0,0,0-3.461.914" transform="translate(33.77 14.472)"/></g></svg>