<svg xmlns="http://www.w3.org/2000/svg" width="101.242" height="25.304" viewBox="0 0 101.242 25.304"><defs><style>.a,.b{fill:#3a3a3a;}.a,.d{fill-rule:evenodd;}.c{fill:#0097b9;}.d{fill:#005874;}.e{fill:#2fb8e7;}.f{fill:#007592;}.g{fill:#80b13a;}.h{fill:#6e9123;}.i{fill:#3f7937;}.j{fill:#a5c550;}.k{fill:#5d8b27;}.l{fill:#d81936;}.m{fill:#af2c35;}.n{fill:#762624;}.o{fill:#b22b37;}.p{fill:#dc505e;}</style></defs><g transform="translate(-0.648 -0.706)"><g transform="translate(0.648 6.132)"><g transform="translate(0)"><path class="a" d="M66.952-5.527q.013-.235.026-.753v-6.607l-.021-.642q0-.139-.019-.277a.639.639,0,0,0-.033-.137.532.532,0,0,0-.324-.346,1.827,1.827,0,0,0-.666-.1v-.225h3.76a9.441,9.441,0,0,1,1.481.108,4.224,4.224,0,0,1,1.067.293,1.931,1.931,0,0,1,1.171,1.9c.008,1.28-.831,2.1-2.568,2.308l-.291.048a6.944,6.944,0,0,1,1.165.2,2.98,2.98,0,0,1,.717.27,2.306,2.306,0,0,1,1.367,2.236,2.345,2.345,0,0,1-1.833,2.443,6.183,6.183,0,0,1-1.014.182,12.681,12.681,0,0,1-1.332.068h-3.69V-4.78a1.192,1.192,0,0,0,.865-.228.49.49,0,0,0,.121-.179,1.229,1.229,0,0,0,.051-.341ZM68.112-14.3v4.193h1.467c1.706-.01,2.59-.721,2.6-2.146.012-1.382-.919-2.057-2.725-2.047H68.111Zm4.36,6.942a2.172,2.172,0,0,0-1.064-2.055,2.962,2.962,0,0,0-.809-.253,6.2,6.2,0,0,0-1.076-.09H68.111v4.9h1.411a3.351,3.351,0,0,0,2.23-.589,1.818,1.818,0,0,0,.534-.782,3.253,3.253,0,0,0,.185-1.127Z" transform="translate(-14.013 24.217)"/><path class="b" d="M81.238-4.869a1.837,1.837,0,0,1-.153-.792L81.079-5.8l-.09.1a3.38,3.38,0,0,1-.316.317,4.158,4.158,0,0,1-.359.278,3.091,3.091,0,0,1-.857.462,2.909,2.909,0,0,1-.927.13,2.06,2.06,0,0,1-1.39-.421,1.724,1.724,0,0,1-.434-.628,2.142,2.142,0,0,1-.162-.817c.007-1.076.665-1.77,2.012-2.077.356-.083.733-.151,1.128-.2s.848-.1,1.351-.13l.052-.939a5.1,5.1,0,0,0-.046-.779,1.836,1.836,0,0,0-.155-.523,1.216,1.216,0,0,0-1.2-.577,1.312,1.312,0,0,0-1.51,1.343,1.328,1.328,0,0,1-.037.3.242.242,0,0,1-.093.13.846.846,0,0,1-.459.1c-.462.007-.636-.131-.628-.363a1.227,1.227,0,0,1,.245-.705,2.1,2.1,0,0,1,.677-.594,4.139,4.139,0,0,1,2.014-.442,2.31,2.31,0,0,1,1.83.6,1.6,1.6,0,0,1,.3.613,3.771,3.771,0,0,1,.1.936l0,.081-.007.367-.019.969-.014,1.332-.014.645c0,.3.014.535.035.795s.11.533.312.608a2.139,2.139,0,0,0,.8.111,1.829,1.829,0,0,0,.647-.1.561.561,0,0,0,.316-.44,4.891,4.891,0,0,0,.058-.96v-3.761a1.809,1.809,0,0,0-.195-1.06.917.917,0,0,0-.77-.259v-.2l2-.147v1.6l.1-.187a2.943,2.943,0,0,1,1.006-1.127,2.621,2.621,0,0,1,1.406-.33,1.883,1.883,0,0,1,1.784.843,1.935,1.935,0,0,1,.274.689,5.239,5.239,0,0,1,.081,1.034v2.906a5.127,5.127,0,0,0,.055.966.547.547,0,0,0,.314.436,2.729,2.729,0,0,0,.741.1,1.708,1.708,0,0,0,.6-.1.558.558,0,0,0,.3-.44,5.1,5.1,0,0,0,.053-.959v-6.833a4.334,4.334,0,0,0-.05-.87.479.479,0,0,0-.306-.388,2.071,2.071,0,0,0-.636-.075v-.2l2.08-.107q-.04.71-.06,1.422-.02.662-.021,1.325v4.59L95.28-9.93a1.584,1.584,0,0,0,.5-.9c.016-.338-.324-.49-.881-.518v-.2h2.977v.2a2.237,2.237,0,0,0-.467.1,2.274,2.274,0,0,0-.443.211q-.2.118-.384.255a3.458,3.458,0,0,0-.374.338q-.317.328-.624.665l-.756.817,1.98,3.125a2.954,2.954,0,0,0,.625.781,1.472,1.472,0,0,0,.695.276v.2H96.321c-.048-.1-.118-.233-.2-.395L95.829-5.5l-.221-.4-1.465-2.4L92.992-7l0,.725a5.17,5.17,0,0,0,.054.96.557.557,0,0,0,.309.44,1.819,1.819,0,0,0,.643.1v.2H87.876v-.2c.414-.011.7-.08.813-.231a.644.644,0,0,0,.1-.2A1.235,1.235,0,0,0,88.84-5.5c.008-.094.016-.229.026-.408s.016-.3.016-.367V-9.1a3.761,3.761,0,0,0-.229-1.539,1.3,1.3,0,0,0-1.28-.775,1.84,1.84,0,0,0-1.627.966,3.113,3.113,0,0,0-.354.828,3.489,3.489,0,0,0-.129.913v2.429a5.074,5.074,0,0,0,.054.966.548.548,0,0,0,.313.436,1.876,1.876,0,0,0,.652.1v.2H83.273q-.513.018-1.027.019c-.264,0-.391-.032-.633-.05-.213-.062-.3-.118-.374-.259M77.69-6.414a1.777,1.777,0,0,0,.337,1.109,1.109,1.109,0,0,0,.893.433,2.158,2.158,0,0,0,1.059-.293,2.12,2.12,0,0,0,.779-.758,2.331,2.331,0,0,0,.251-.773,7.116,7.116,0,0,0,.077-1.163v-.72a12.924,12.924,0,0,0-1.5.195,3.7,3.7,0,0,0-.931.32,1.707,1.707,0,0,0-.967,1.649" transform="translate(-16.084 24.243)"/><path class="a" d="M4.174-8.789v2.5a3.584,3.584,0,0,0,.068.894.525.525,0,0,0,.333.386,2.572,2.572,0,0,0,.787.1v.349H1.448V-4.9a2.329,2.329,0,0,0,.741-.105A.512.512,0,0,0,2.5-5.392a3.858,3.858,0,0,0,.063-.894v-6.578a4.048,4.048,0,0,0-.06-.894.519.519,0,0,0-.3-.389,2.1,2.1,0,0,0-.706-.115v-.35h3.73a4.507,4.507,0,0,1,2.763.668,2.494,2.494,0,0,1,.867,2.13A2.566,2.566,0,0,1,7.271-9.137a4.858,4.858,0,0,1-1.06.255,10.37,10.37,0,0,1-1.431.094H4.174Zm0-.39h.644a2.341,2.341,0,0,0,1.71-.551,2.042,2.042,0,0,0,.452-.831,4.1,4.1,0,0,0,.155-1.173q-.006-2.485-2.169-2.489H4.174v5.043Zm10.986.813H10.605a8.707,8.707,0,0,0,.085,1.227,3.94,3.94,0,0,0,.25.9,1.861,1.861,0,0,0,1.754,1.327,2.055,2.055,0,0,0,1.218-.4,2.966,2.966,0,0,0,.91-1.131l.322.214a3.449,3.449,0,0,1-1.162,1.4,2.991,2.991,0,0,1-1.675.441,3.54,3.54,0,0,1-2.589-1,3.872,3.872,0,0,1-.913-2.676,4.054,4.054,0,0,1,.883-2.708,3.32,3.32,0,0,1,2.489-1.019,3.26,3.26,0,0,1,1.749.452,2.626,2.626,0,0,1,1,1.318,3.318,3.318,0,0,1,.159.659,8.948,8.948,0,0,1,.072.99m-4.543-.389h2.85q-.017-.621-.066-1a3.334,3.334,0,0,0-.153-.677q-.362-1.057-1.109-1.047-.838.007-1.251,1.18a4.353,4.353,0,0,0-.169.665,8.819,8.819,0,0,0-.1.877" transform="translate(-1.448 24.217)"/><path class="b" d="M18.83-11.392l2.527-.176c.013.253.023.465.03.637s.01.324.01.456v.4a2.391,2.391,0,0,1,1.989-1.525,1.2,1.2,0,0,1,.819.3.974.974,0,0,1,.324.73.757.757,0,0,1-.273.593,1.064,1.064,0,0,1-.695.229.555.555,0,0,1-.632-.432,1.138,1.138,0,0,0-.155-.378.269.269,0,0,0-.235-.094h-.027q-.4.034-.752.634a2.575,2.575,0,0,0-.242.663,3.857,3.857,0,0,0-.081.834v2.5a4.032,4.032,0,0,0,.057.881.476.476,0,0,0,.3.37,2.318,2.318,0,0,0,.72.1v.324H18.777v-.324a1.864,1.864,0,0,0,.676-.089.5.5,0,0,0,.286-.379,4.164,4.164,0,0,0,.059-.881V-9.76a1.984,1.984,0,0,0-.167-1.084q-.185-.25-.8-.224v-.324Zm8.7-.176.014,1.336a2.614,2.614,0,0,1,2.339-1.363,1.748,1.748,0,0,1,1.908,1.417,3.074,3.074,0,0,1,1-1.079,2.454,2.454,0,0,1,1.312-.338,2.03,2.03,0,0,1,1.748.782,1.855,1.855,0,0,1,.312.719,5.233,5.233,0,0,1,.091,1.1v2.966a4.045,4.045,0,0,0,.059.88.491.491,0,0,0,.286.38,1.86,1.86,0,0,0,.677.089v.324H33.634v-.324a1.722,1.722,0,0,0,.649-.089.493.493,0,0,0,.275-.38,4.23,4.23,0,0,0,.057-.88V-8.979a3.271,3.271,0,0,0-.26-1.534.89.89,0,0,0-.856-.461,1.374,1.374,0,0,0-1.2.742,2.39,2.39,0,0,0-.416,1.362v2.847a4.174,4.174,0,0,0,.057.88.493.493,0,0,0,.279.38,1.766,1.766,0,0,0,.658.089v.324h-3.6v-.324a1.714,1.714,0,0,0,.648-.089.494.494,0,0,0,.276-.38,4.242,4.242,0,0,0,.056-.88V-8.991q.011-2-1.089-1.982a1.45,1.45,0,0,0-1.146.651,2.653,2.653,0,0,0-.481,1.562v2.737a4.251,4.251,0,0,0,.058.886.484.484,0,0,0,.275.378,1.75,1.75,0,0,0,.649.085v.324H24.882v-.324a1.891,1.891,0,0,0,.677-.085.488.488,0,0,0,.286-.377,4.142,4.142,0,0,0,.059-.886V-9.773a1.912,1.912,0,0,0-.164-1.068q-.186-.244-.83-.228v-.324l2.621-.176Zm19.3.618v4.505a6.685,6.685,0,0,0,.032.728,2.208,2.208,0,0,0,.1.485.787.787,0,0,0,.264.361.655.655,0,0,0,.394.138,1.588,1.588,0,0,0,.941-.419l.188.338a2.754,2.754,0,0,1-1.841.675A1.618,1.618,0,0,1,45.4-4.88a1.557,1.557,0,0,1-.125-.366,3.657,3.657,0,0,1-.06-.555c-.012-.233-.018-.547-.017-.941V-10.95h-.766v-.4a1.652,1.652,0,0,0,.745-.186,1.5,1.5,0,0,0,.533-.53A2.763,2.763,0,0,0,46-12.68a5.586,5.586,0,0,0,.2-.832l.672-.068q-.031.6-.035,1.206c0,.258,0,.589,0,.993H48.46v.432Z" transform="translate(-4.825 24.016)"/><path class="a" d="M48.967-4.155v.285c-.394.026-.552.026-.966.026a2.745,2.745,0,0,1-.949-.111.915.915,0,0,1-.4-.26.782.782,0,0,1-.177-.554,3.581,3.581,0,0,1-1.084.829,2.79,2.79,0,0,1-1.216.263,2.132,2.132,0,0,1-1.514-.537A1.944,1.944,0,0,1,42.1-5.66q0-1.737,2.15-2.158a16.311,16.311,0,0,1,2.2-.256v-.878a3.155,3.155,0,0,0-.221-1.46.837.837,0,0,0-.828-.387.927.927,0,0,0-.9.459,1.205,1.205,0,0,0-.143.372,4.523,4.523,0,0,0-.072.585.655.655,0,0,1-.209.512.975.975,0,0,1-.612.149q-.934-.007-.94-.621a1.224,1.224,0,0,1,.221-.683,1.967,1.967,0,0,1,.613-.572,4.112,4.112,0,0,1,2.2-.513,2.855,2.855,0,0,1,1.989.553,1.506,1.506,0,0,1,.4.655,3.364,3.364,0,0,1,.126,1.018L48.071-7.71l-.013,1.173q-.017.577-.014.729a7.131,7.131,0,0,0,.046,1.066.59.59,0,0,0,.221.444,1.193,1.193,0,0,0,.655.143M46.459-6.725V-7.764a4.1,4.1,0,0,0-2.048.536,1.536,1.536,0,0,0-.587,1.366,2.067,2.067,0,0,0,.3,1.155.935.935,0,0,0,.791.436,1.349,1.349,0,0,0,.758-.238,1.577,1.577,0,0,0,.546-.652,2.077,2.077,0,0,0,.187-.626,6.282,6.282,0,0,0,.056-.939M60.54-4.155v.285q-.482.033-.966.027a2.745,2.745,0,0,1-.949-.113.915.915,0,0,1-.4-.258.788.788,0,0,1-.179-.556,3.531,3.531,0,0,1-1.083.829,2.786,2.786,0,0,1-1.216.264,2.132,2.132,0,0,1-1.514-.537,1.943,1.943,0,0,1-.556-1.446q0-1.737,2.15-2.158a16.311,16.311,0,0,1,2.2-.257v-.878a3.149,3.149,0,0,0-.221-1.459.838.838,0,0,0-.827-.388.928.928,0,0,0-.9.459,1.194,1.194,0,0,0-.142.372,4.523,4.523,0,0,0-.072.585.661.661,0,0,1-.208.513.975.975,0,0,1-.612.148q-.935-.007-.942-.62a1.245,1.245,0,0,1,.221-.684,2,2,0,0,1,.613-.572,4.127,4.127,0,0,1,2.2-.512,2.855,2.855,0,0,1,1.989.554,1.5,1.5,0,0,1,.4.654,3.419,3.419,0,0,1,.126,1.018l-.014,1.173-.014,1.174c-.011.384-.016.627-.014.728a7.243,7.243,0,0,0,.046,1.066.592.592,0,0,0,.221.444,1.192,1.192,0,0,0,.655.143m-2.508-2.57V-7.763a4.1,4.1,0,0,0-2.048.536A1.534,1.534,0,0,0,55.4-5.861a2.047,2.047,0,0,0,.3,1.155.933.933,0,0,0,.791.437,1.354,1.354,0,0,0,.758-.238,1.582,1.582,0,0,0,.546-.652,2.071,2.071,0,0,0,.187-.626,6.294,6.294,0,0,0,.056-.94" transform="translate(-9.372 23.534)"/><path class="c" d="M99.375-23.752l-.027.519,9.933,11.693.357.058.045-.022.174-.324-4.235-14.228-.72-.486Z" transform="translate(-20.528 26.542)"/></g></g><g transform="translate(79.44 6.119)"><g transform="translate(0 0)"><path class="d" d="M3.482-14.191,10.828-2.976l-.391-.064L.491-14.763Z" transform="translate(-0.491 18.081)"/><path class="e" d="M6.821-18.884l.717.489L5.312-15.426l-1.034-.453Z" transform="translate(-1.229 18.884)"/><path class="f" d="M3.54-15.763l-.058.887-2.99-.573.031-.515Zm1.033.454L6.8-18.283l4.29,14.24-.219.367Z" transform="translate(-0.491 18.767)"/></g></g><g transform="translate(90.626 5.85)"><g transform="translate(0)"><path class="g" d="M118.016-26.892l6.422,2.963.012.837L113.91-7.072l-.481.127-.071-.032-.15-.362,4.248-19.24Z" transform="translate(-113.208 26.892)"/></g></g><g transform="translate(90.601 5.83)"><g transform="translate(0)"><path class="h" d="M11.577-20.405,1.047-4.35l-.539.158L7.277-20.037Z" transform="translate(-0.289 24.221)"/><path class="i" d="M6.012-21.554.394-5.089l-.158-.4L4.5-24.752Z" transform="translate(-0.236 25.068)"/><path class="j" d="M13.14-21.44l.018.833-4.3.368-.242-1.143Z" transform="translate(-1.869 24.423)"/><path class="k" d="M8.014-22.1l-.971.473-1.511-3.2.556-.314Z" transform="translate(-1.268 25.145)"/></g></g><g transform="translate(85.624 0.708)"><g transform="translate(0 0)"><path class="l" d="M106.994-32.7l.256-.494,8.223-.089.531.553-3.939,13.208-.25.145h-.008l-.271-.183Z" transform="translate(-106.994 33.278)"/></g></g><g transform="translate(85.595 0.706)"><g transform="translate(0 0)"><path class="m" d="M4.295-15.85l-.593.7L.49-16.753l.258-.489Z" transform="translate(-0.488 17.324)"/><path class="n" d="M.488-16.635,3.7-15.029,5.332-3.27l-.285-.195Z" transform="translate(-0.488 17.206)"/><path class="o" d="M6.4-15.032l4.293-1.628L6.759-3.429l-.27.153Z" transform="translate(-1.64 17.211)"/><path class="p" d="M5.217-15.87l.952.7,4.294-1.628-.538-.551Z" transform="translate(-1.41 17.344)"/></g></g></g></svg>