<svg xmlns="http://www.w3.org/2000/svg" width="114" height="115" viewBox="0 0 114 115"><defs><style>.a{fill:#f1f1f1;}.b{fill:#bfbfbf;}</style></defs><g transform="translate(-15 -527)"><rect class="a" width="114" height="115" rx="5" transform="translate(15 527)"/><g transform="translate(42 494.733)"><g transform="translate(0 68.267)"><g transform="translate(0 0)"><path class="b" d="M54.122,68.267H6.495A6.5,6.5,0,0,0,0,74.762V105.07a6.5,6.5,0,0,0,6.495,6.495H54.122a6.5,6.5,0,0,0,6.495-6.495V74.762A6.5,6.5,0,0,0,54.122,68.267Zm2.165,25.082L42.663,79.726a2.165,2.165,0,0,0-3.061,0L21.649,97.679,14.52,90.55a2.165,2.165,0,0,0-3.061,0L4.33,97.679V74.762A2.165,2.165,0,0,1,6.495,72.6H54.122a2.165,2.165,0,0,1,2.165,2.165V93.349Z" transform="translate(0 -68.267)"/></g></g><g transform="translate(12.989 76.926)"><circle class="b" cx="6.495" cy="6.495" r="6.495"/></g></g></g></svg>